<svg width="113" height="58" viewBox="0 0 113 58" fill="none" xmlns="http://www.w3.org/2000/svg">
<path opacity="0.87" d="M7.8822 26.2522C14.9608 26.1254 10.8141 25.0605 14.5565 22.7139L12.179 39.0591C10.6061 40.0471 14.4286 42.7024 8.44704 42.9593C4.6026 43.1244 4.26617 43.9022 1.021 46.3026C4.81087 41.7164 4.07402 34.1621 3.56448 29.4442C3.56448 27.6109 3.32269 26.3339 7.8822 26.2522Z" fill="url(#paint0_linear_86_2)"/>
<path fill-rule="evenodd" clip-rule="evenodd" d="M41.0823 20.604V10.4886L37.7104 10.4353L37.8173 9.64307H45.9417L45.8349 10.4031L42.5699 10.4886V20.604H41.0823" fill="#388DA9"/>
<path fill-rule="evenodd" clip-rule="evenodd" d="M49.4206 15.2194C50.0912 15.2194 50.6354 15.1801 51.0531 15.1017C51.4704 15.0231 51.7896 14.9125 52.0107 14.7698C52.1107 14.7057 52.2036 14.62 52.2893 14.5129C52.3748 14.4058 52.4478 14.2686 52.5085 14.1008C52.5692 13.9333 52.6156 13.7299 52.6478 13.4909C52.68 13.2516 52.6958 12.9645 52.6958 12.629C52.6958 12.2079 52.6352 11.8494 52.5141 11.5531C52.3924 11.2571 52.2178 11.0165 51.9893 10.8308C51.7611 10.6451 51.4847 10.5095 51.1599 10.424C50.8351 10.3383 50.4658 10.2955 50.0521 10.2955C49.845 10.2955 49.6667 10.3008 49.5169 10.3116C49.367 10.3222 49.1813 10.3383 48.9602 10.3596V15.2194H49.4206ZM50.5016 15.9793H48.9601V20.6034H47.4722V9.66382C47.9217 9.62821 48.4177 9.59972 48.9601 9.57835C49.5022 9.55671 50.0341 9.5459 50.5551 9.5459C51.1901 9.5459 51.7431 9.61396 52.214 9.7493C52.6851 9.88516 53.074 10.0814 53.3808 10.3381C53.6876 10.5954 53.9161 10.909 54.0659 11.2802C54.2158 11.6511 54.2907 12.0722 54.2907 12.5434C54.2907 13 54.2282 13.4047 54.1034 13.7582C53.9784 14.1115 53.8127 14.4201 53.6056 14.6839C53.3985 14.948 53.1542 15.1731 52.8725 15.3585C52.5904 15.544 52.296 15.6975 51.9892 15.8186C52.3174 16.3827 52.6332 16.9195 52.9366 17.4297C53.2399 17.9399 53.5449 18.3895 53.8517 18.7784C54.1585 19.1675 54.4691 19.4759 54.783 19.7041C55.0969 19.9328 55.4322 20.0468 55.7894 20.0468H55.8963V20.5285C55.7393 20.5857 55.5394 20.6316 55.2969 20.6675C55.0542 20.7031 54.8081 20.7211 54.5582 20.7211C54.2013 20.7211 53.8982 20.6728 53.6483 20.5765C53.3985 20.4802 53.1542 20.2982 52.9152 20.0307C52.6759 19.7632 52.4176 19.3938 52.1393 18.9227C51.861 18.4517 51.5183 17.8415 51.1118 17.0923L50.5016 15.9793V15.9793Z" fill="#388DA9"/>
<path fill-rule="evenodd" clip-rule="evenodd" d="M62.1797 15.8724L60.3599 10.7557L58.4547 15.8724H62.1797ZM63.7748 20.6035L62.4045 16.5896L58.1872 16.6429L56.7098 20.6035H55.6182L59.964 9.73887L61.2485 9.36426L65.316 20.6035H63.7748V20.6035Z" fill="#388DA9"/>
<path fill-rule="evenodd" clip-rule="evenodd" d="M75.4093 20.6573L67.6703 12.1155H67.6383C67.6526 12.922 67.6668 13.6567 67.6811 14.3205C67.6885 14.6059 67.6935 14.8895 67.6972 15.1713C67.7009 15.4536 67.704 15.7121 67.708 15.9474C67.7114 16.183 67.7148 16.3864 67.7185 16.5576C67.7222 16.7289 67.7238 16.8465 67.7238 16.9109V20.6038H66.7393V9.56787H67.3922L75.1418 18.0883H75.1528C75.1381 17.3391 75.1275 16.6431 75.1206 16.001C75.1206 15.7298 75.1188 15.4552 75.1151 15.1768C75.1114 14.8985 75.108 14.6363 75.1043 14.3901C75.1006 14.1437 75.099 13.9245 75.099 13.7317C75.099 13.5391 75.099 13.3892 75.099 13.2821V9.65361H76.0838V20.6573H75.4093" fill="#388DA9"/>
<path fill-rule="evenodd" clip-rule="evenodd" d="M80.9866 20.604V10.4886L77.6147 10.4353L77.7219 9.64307H85.8463L85.7392 10.4031L82.4745 10.4886V20.604H80.9866" fill="#388DA9"/>
<path fill-rule="evenodd" clip-rule="evenodd" d="M95.8866 15.0807C95.8866 14.3813 95.8156 13.7426 95.6729 13.1646C95.5299 12.5865 95.307 12.0906 95.0039 11.6767C94.7002 11.263 94.3148 10.9419 93.8478 10.7132C93.3803 10.485 92.8219 10.3708 92.1726 10.3708C91.6088 10.3708 91.0841 10.4314 90.599 10.5525C90.1138 10.6742 89.7286 10.8562 89.4432 11.0986C89.2859 11.2342 89.154 11.4342 89.0472 11.698C88.9398 11.9621 88.8543 12.2708 88.79 12.624C88.7259 12.9773 88.6792 13.3624 88.6509 13.78C88.6222 14.1974 88.6082 14.6308 88.6082 15.0807C88.6082 15.7729 88.667 16.4132 88.785 17.002C88.9026 17.5906 89.0968 18.099 89.368 18.5271C89.6392 18.9556 90.0014 19.2909 90.4546 19.5333C90.9076 19.776 91.4732 19.8974 92.151 19.8974C92.8002 19.8974 93.3516 19.8385 93.8051 19.7206C94.2581 19.603 94.6628 19.3909 95.0197 19.0838C95.1767 18.9556 95.3088 18.7537 95.4157 18.4791C95.5231 18.2045 95.612 17.8868 95.6835 17.5265C95.7547 17.1661 95.8067 16.7754 95.8386 16.3543C95.8708 15.9333 95.8866 15.5088 95.8866 15.0807ZM97.4815 15.0806C97.4815 15.9512 97.3691 16.736 97.1444 17.4354C96.9196 18.1348 96.5861 18.7304 96.1435 19.223C95.701 19.7153 95.1465 20.0936 94.4793 20.3577C93.8119 20.6215 93.036 20.7536 92.1509 20.7536C91.2521 20.7536 90.4775 20.618 89.8283 20.3468C89.1788 20.0759 88.6472 19.692 88.2333 19.1963C87.8193 18.7004 87.5144 18.1044 87.3181 17.4087C87.1218 16.7128 87.0239 15.9369 87.0239 15.0806C87.0239 14.224 87.1236 13.4536 87.3234 12.7685C87.5233 12.0834 87.8336 11.5001 88.2549 11.0184C88.6757 10.5366 89.2109 10.1673 89.8605 9.91034C90.5097 9.65364 91.2806 9.5249 92.1725 9.5249C93.0571 9.5249 93.8314 9.65364 94.4952 9.91034C95.1589 10.1673 95.7119 10.5366 96.1543 11.0184C96.5967 11.5001 96.9286 12.0834 97.1502 12.7685C97.3707 13.4536 97.4815 14.224 97.4815 15.0806V15.0806Z" fill="#388DA9"/>
<path fill-rule="evenodd" clip-rule="evenodd" d="M101.817 15.2194C102.487 15.2194 103.031 15.1801 103.449 15.1017C103.866 15.0231 104.186 14.9125 104.407 14.7698C104.507 14.7057 104.6 14.62 104.685 14.5129C104.771 14.4058 104.844 14.2686 104.905 14.1008C104.965 13.9333 105.012 13.7299 105.044 13.4909C105.076 13.2516 105.092 12.9645 105.092 12.629C105.092 12.2079 105.031 11.8494 104.91 11.5531C104.789 11.2571 104.614 11.0165 104.386 10.8308C104.157 10.6451 103.88 10.5095 103.556 10.424C103.231 10.3383 102.862 10.2955 102.448 10.2955C102.241 10.2955 102.063 10.3008 101.913 10.3116C101.763 10.3222 101.578 10.3383 101.356 10.3596V15.2194H101.817ZM102.898 15.9793H101.356V20.6034H99.8682V9.66382C100.318 9.62821 100.814 9.59972 101.356 9.57835C101.898 9.55671 102.43 9.5459 102.951 9.5459C103.586 9.5459 104.139 9.61396 104.61 9.7493C105.081 9.88516 105.47 10.0814 105.777 10.3381C106.084 10.5954 106.312 10.909 106.462 11.2802C106.612 11.6511 106.687 12.0722 106.687 12.5434C106.687 13 106.624 13.4047 106.499 13.7582C106.374 14.1115 106.208 14.4201 106.002 14.6839C105.795 14.948 105.55 15.1731 105.268 15.3585C104.987 15.544 104.692 15.6975 104.385 15.8186C104.713 16.3827 105.029 16.9195 105.333 17.4297C105.636 17.9399 105.941 18.3895 106.248 18.7784C106.555 19.1675 106.865 19.4759 107.179 19.7041C107.493 19.9328 107.828 20.0468 108.185 20.0468H108.292V20.5285C108.135 20.5857 107.935 20.6316 107.693 20.6675C107.45 20.7031 107.204 20.7211 106.954 20.7211C106.598 20.7211 106.294 20.6728 106.044 20.5765C105.795 20.4802 105.55 20.2982 105.311 20.0307C105.072 19.7632 104.813 19.3938 104.535 18.9227C104.257 18.4517 103.914 17.8415 103.508 17.0923L102.898 15.9793V15.9793Z" fill="#388DA9"/>
<path fill-rule="evenodd" clip-rule="evenodd" d="M26.9359 13.8763C29.6757 12.0261 31.9315 10.682 33.7571 9.66815C33.1076 9.17086 32.4489 8.70153 31.7907 8.25146C29.7933 9.15529 27.3596 10.382 24.4688 12.1369C25.2831 12.6806 26.1091 13.2566 26.9359 13.8763" fill="#388DA9"/>
<path fill-rule="evenodd" clip-rule="evenodd" d="M29.4389 6.75732C27.2692 7.57726 24.6659 8.70085 21.6685 10.389C22.4219 10.8288 23.1915 11.3005 23.9723 11.8102C26.8857 10.0666 29.3544 8.86441 31.384 7.97799C30.7342 7.54956 30.087 7.13959 29.4389 6.75732" fill="#90918C"/>
<path fill-rule="evenodd" clip-rule="evenodd" d="M18.4654 10.4701C17.7893 10.0857 17.1289 9.73698 16.4916 9.41064C12.818 11.5642 9.02404 14.4355 5.58838 17.9965C6.04108 18.4761 6.51648 18.9818 7.01852 19.5134C10.6692 15.719 14.6802 12.7178 18.4654 10.4701" fill="#90918C"/>
<path fill-rule="evenodd" clip-rule="evenodd" d="M4.13916 16.4496C4.51167 16.8493 4.90818 17.2661 5.31999 17.7101C8.70737 14.1906 12.4625 11.3506 16.1092 9.21583C15.5122 8.91667 14.936 8.63861 14.3799 8.38086C10.8743 10.4357 7.32815 13.1414 4.13916 16.4496" fill="#388DA9"/>
<path fill-rule="evenodd" clip-rule="evenodd" d="M20.1102 9.50121C20.8017 9.12396 21.4771 8.77599 22.1311 8.45017C19.1304 6.86228 16.4398 5.82707 14.1406 5.0752C13.5312 5.37885 12.9147 5.7007 12.2939 6.04524C14.5002 6.8198 17.1231 7.88245 20.1102 9.50121" fill="#90918C"/>
<path fill-rule="evenodd" clip-rule="evenodd" d="M16.262 4.08789C15.6876 4.33851 15.1049 4.60787 14.5137 4.89226C16.8279 5.64413 19.5277 6.67591 22.5265 8.25774C23.1446 7.9599 23.7445 7.68368 24.326 7.43016C21.3583 5.86758 18.635 4.84003 16.262 4.08789" fill="#388DA9"/>
<path fill-rule="evenodd" clip-rule="evenodd" d="M27.1803 25.518C27.992 24.6899 28.7629 23.8966 29.5 23.1434C25.3148 18.8791 20.9347 15.6922 17.1445 13.2554C16.3066 13.8308 15.4569 14.4433 14.6011 15.0957C18.2763 17.7006 22.7456 20.9973 27.1803 25.518" fill="#388DA9"/>
<path fill-rule="evenodd" clip-rule="evenodd" d="M20.0102 11.4082C19.241 11.8723 18.4545 12.3727 17.6533 12.9109C21.4536 15.3208 25.8068 18.4811 29.9397 22.6937C30.6219 21.9988 31.2656 21.3324 31.8816 20.7011C27.9906 16.7415 23.8147 13.6907 20.0102 11.4082" fill="#90918C"/>
<path opacity="0.87" d="M101.131 50.4612C94.0525 50.588 97.7813 51.6529 94.0388 53.9995L96.4163 37.6542C97.9893 36.6663 94.5846 34.011 100.566 33.7541C104.411 33.589 107.724 33.5226 111.459 31.9803C107.564 35.5157 107.245 41.1865 107.826 47.2691C107.826 49.1025 105.691 50.3795 101.131 50.4612Z" fill="url(#paint1_linear_86_2)"/>
<path d="M1.01758 46.3083L1.01929 46.3024L1.02077 46.3027L1.02091 46.3026C4.63198 41.9325 4.1332 34.8678 3.63733 30.1299C4.36358 30.7675 5.35531 31.4783 6.80934 32.0018C9.37298 32.9248 12.4309 33.3202 16.3922 33.3202C18.9803 33.3202 22.0731 33.1917 25.6006 32.9227C33.6188 32.3112 43.8828 30.974 55.5698 28.7705C72.3986 25.5976 82.0122 23.9439 94.5228 23.9438C106.791 23.9438 111.157 28.225 111.37 32.016C111.371 32.0304 111.371 32.0448 111.372 32.0592C107.559 35.5997 107.249 41.2313 107.826 47.2684C107.826 47.4023 107.815 47.5333 107.792 47.661C107.365 46.108 105.286 44.2386 94.5868 44.4842C91.5084 44.5549 88.5315 44.6858 85.6332 44.8672V44.8676C75.8427 45.4803 66.9504 46.6687 58.0832 48.0561C55.3564 48.4828 52.2221 49.0692 48.8441 49.7013C37.9854 51.733 24.6073 54.2362 14.1414 53.4194C6.68402 52.8374 3.9525 50.6449 2.49569 49.129C1.73044 48.3328 1.28845 47.2191 1.01758 46.3083Z" fill="url(#paint2_linear_86_2)"/>
<path d="M110.23 33.3124C109.826 33.8369 109.478 34.3944 109.179 34.9811C109.035 33.1992 108.424 31.2048 106.561 29.6302C104.621 27.9907 101.22 26.7198 95.2126 26.7198C82.7912 26.7198 71.8675 28.4616 55.0411 31.634C43.3286 33.8423 33.0327 35.1844 24.9776 35.7986C21.4337 36.0688 18.3179 36.1986 15.7023 36.1986C11.6864 36.1986 8.51925 35.7984 5.83374 34.8316C5.14846 34.5849 4.50751 34.2606 3.93995 33.9183C3.9187 33.4546 3.89057 32.9986 3.85791 32.5532C4.54274 33.0604 5.43731 33.6064 6.40515 33.9549C8.84691 34.8339 11.7955 35.2245 15.7023 35.2245C18.2628 35.2245 21.3327 35.0973 24.8439 34.8295C32.825 34.2209 43.0572 32.8884 54.7188 30.6898C71.5499 27.5164 82.6129 25.7456 95.2126 25.7456C101.473 25.7456 105.285 27.0767 107.545 28.987C109.097 30.2986 109.867 31.8421 110.23 33.3124Z" fill="url(#paint3_linear_86_2)"/>
<path d="M107.6 43.0464C107.601 43.5609 107.614 44.0818 107.636 44.608C107.556 44.4981 107.46 44.3891 107.344 44.2819C107.002 43.9665 106.463 43.6406 105.589 43.3522C103.821 42.7684 100.751 42.3602 95.4359 42.4822C92.5374 42.5487 89.7292 42.6689 86.992 42.8344L86.519 42.864C76.7685 43.4741 67.9072 44.6579 59.0532 46.0433C56.3423 46.4675 53.2222 47.0512 49.8404 47.6839L49.7615 47.6987C38.9554 49.7206 25.485 52.2411 14.8973 51.4148C11.0865 51.1174 8.4376 50.4046 6.53837 49.5482C4.63501 48.69 3.52368 47.7048 2.76219 46.9125C2.31742 46.4497 1.97807 45.9009 1.71631 45.3508C2.03588 44.8577 2.31373 44.3389 2.55454 43.8003C2.82334 44.6711 3.23493 45.6401 3.88491 46.3165C4.58024 47.04 5.56308 47.909 7.25404 48.6715C8.94913 49.4359 11.3947 50.1104 15.0414 50.395C25.3595 51.2002 38.6055 48.7286 49.5035 46.6895L49.5131 46.6877L49.5133 46.6877C52.8837 46.0571 56.0289 45.4686 58.7689 45.0398C67.4587 43.6802 76.1895 42.5086 85.7712 41.8826V41.8812L86.4032 41.8417C89.3132 41.6596 92.3024 41.5282 95.3933 41.4572C100.778 41.3336 104.097 41.7373 106.149 42.415C106.722 42.6042 107.201 42.8162 107.6 43.0464Z" fill="url(#paint4_linear_86_2)"/>
<path fill-rule="evenodd" clip-rule="evenodd" d="M26.0556 41.5211C25.8848 41.5398 25.7326 41.5919 25.6049 41.6831C25.4713 41.7688 25.3619 41.8878 25.2649 42.0291C25.1737 42.1702 25.0945 42.328 25.0275 42.5023C24.9663 42.6765 24.9166 42.8559 24.8841 43.0345C24.8462 43.2191 24.8308 43.397 24.8154 43.575C24.8112 43.7467 24.8063 43.9013 24.818 44.0438C24.8283 44.152 24.8443 44.26 24.8717 44.3675C24.8991 44.475 24.9375 44.5706 24.9927 44.6597C25.0477 44.7432 25.1248 44.8086 25.2126 44.8563C25.3004 44.9041 25.4157 44.9278 25.5466 44.9109C25.7233 44.8977 25.8924 44.8391 26.0536 44.7294C26.2205 44.6194 26.3746 44.4757 26.5098 44.2927C26.6508 44.1095 26.7677 43.8987 26.8663 43.66C26.9649 43.4214 27.0283 43.1614 27.0621 42.8798L27.1605 42.0922C26.9974 41.8874 26.8251 41.7346 26.6438 41.6393C26.4625 41.544 26.2665 41.5065 26.0556 41.5211ZM16.5095 41.8893C16.3037 41.8923 16.1223 41.9285 15.9653 42.0038C15.8081 42.0733 15.6693 42.1707 15.5485 42.2901C15.428 42.4153 15.325 42.5512 15.2404 42.7149C15.1556 42.8729 15.0827 43.0418 15.033 43.2211L15.513 43.2123C15.8446 43.2098 16.1238 43.1866 16.3453 43.1487C16.5665 43.105 16.7413 43.0462 16.8756 42.9776C17.0097 42.9033 17.1034 42.8193 17.1566 42.7256C17.2096 42.6261 17.2398 42.5276 17.2355 42.4249C17.2344 42.2648 17.1718 42.1359 17.0476 42.0382C16.9177 41.9408 16.7383 41.8911 16.5095 41.8893ZM31.5103 40.9594C31.3455 40.9835 31.2047 41.0352 31.0773 41.1321C30.9553 41.223 30.8517 41.3418 30.7606 41.4886C30.6694 41.6297 30.596 41.7872 30.5461 41.9608C30.4905 42.1347 30.4466 42.3139 30.4201 42.498C30.3935 42.6821 30.3781 42.86 30.3742 43.0375C30.3702 43.2149 30.377 43.3748 30.3944 43.517C30.4357 43.8183 30.5195 44.0435 30.6402 44.1929C30.7666 44.3419 30.9405 44.3975 31.1681 44.3708C31.3443 44.3462 31.5072 44.2764 31.6682 44.161C31.8292 44.0455 31.9773 43.8963 32.1068 43.7136C32.2304 43.5254 32.3414 43.3091 32.4283 43.0652C32.5155 42.8271 32.5672 42.5619 32.5899 42.2864L32.6476 41.4834C32.4736 41.2905 32.2958 41.1436 32.1091 41.0543C31.9223 40.9649 31.7265 40.9332 31.5103 40.9594ZM21.5788 41.138C21.7044 41.1327 21.8305 41.1389 21.9454 41.1512C22.0605 41.1692 22.1702 41.1932 22.2744 41.2231C22.3786 41.253 22.4718 41.2948 22.5596 41.3426C22.6474 41.3903 22.7122 41.4334 22.7595 41.4714C22.8069 41.5094 22.8368 41.5425 22.8495 41.5705C22.8621 41.5986 22.8692 41.6326 22.8707 41.6669C22.8731 41.7239 22.8698 41.7813 22.8608 41.8388C22.852 41.9021 22.8373 41.9599 22.8166 42.0123C22.796 42.0646 22.7751 42.1112 22.748 42.1467C22.7151 42.1824 22.6873 42.2007 22.6474 42.2024C22.6017 42.2043 22.5551 42.1834 22.5075 42.1397C22.4599 42.0959 22.3949 42.0472 22.3126 41.9935C22.236 41.9395 22.1311 41.8925 22.0147 41.8459C21.8929 41.8053 21.7435 41.7887 21.5609 41.7964C21.3611 41.8049 21.1803 41.8582 21.0296 41.9446C20.879 42.0368 20.7466 42.151 20.6382 42.2928C20.5296 42.4289 20.439 42.5872 20.372 42.7615C20.3048 42.9302 20.2492 43.1041 20.211 43.283C20.1726 43.4562 20.1456 43.6289 20.1295 43.7897C20.1191 43.9503 20.1137 44.0935 20.1187 44.2133C20.1325 44.5387 20.2113 44.7813 20.361 44.9408C20.5107 45.1004 20.7255 45.1771 21.0052 45.1653C21.2107 45.1566 21.3865 45.1206 21.5273 45.0689C21.6733 45.0056 21.7967 44.9489 21.8966 44.8761C21.9967 44.8089 22.0742 44.7485 22.1405 44.6942C22.2012 44.6402 22.263 44.6147 22.3087 44.6128C22.3372 44.6116 22.3548 44.6223 22.3729 44.6444C22.3853 44.6668 22.3981 44.7005 22.4001 44.7462C22.4015 44.7804 22.3977 44.8263 22.3942 44.878C22.3906 44.9296 22.3816 44.9872 22.3667 45.0392C22.3577 45.0968 22.3427 45.1489 22.3218 45.1955C22.3068 45.2476 22.28 45.2888 22.2417 45.3305C22.2034 45.3721 22.1426 45.4204 22.0539 45.4871C21.959 45.5425 21.8527 45.5985 21.729 45.6494C21.6054 45.7004 21.4758 45.7459 21.3286 45.7807C21.187 45.8153 21.0393 45.8386 20.8852 45.8451C20.3772 45.8666 19.9951 45.7569 19.7331 45.5106C19.4708 45.2586 19.3291 44.8814 19.3077 44.3733C19.2995 44.1793 19.3077 43.9673 19.3267 43.7378C19.3513 43.508 19.3987 43.2772 19.4688 43.0398C19.5334 42.8084 19.6265 42.5757 19.7429 42.3535C19.8537 42.1315 19.9939 41.9311 20.1696 41.7579C20.3393 41.5792 20.545 41.439 20.7747 41.3263C21.0045 41.2137 21.2706 41.151 21.5788 41.138ZM16.5636 41.2752C16.8267 41.2755 17.051 41.3061 17.2368 41.3726C17.4224 41.4334 17.5747 41.5185 17.6934 41.6221C17.8122 41.7258 17.8971 41.8423 17.9538 41.9657C18.0107 42.0948 18.0388 42.2194 18.0384 42.3453C18.0362 42.5627 17.993 42.7589 17.8917 42.9348C17.7905 43.1106 17.6367 43.26 17.4189 43.3836C17.2067 43.5069 16.9363 43.6041 16.6019 43.6754C16.2673 43.741 15.8687 43.7806 15.3999 43.7833L14.9025 43.7871C14.8783 43.891 14.8655 43.9945 14.8582 44.092C14.8508 44.1896 14.849 44.2811 14.8466 44.3613C14.8487 44.6815 14.9276 44.924 15.0889 45.0888C15.2446 45.2538 15.4996 45.3345 15.8483 45.3313C16.0483 45.3285 16.2308 45.3151 16.3894 45.2799C16.554 45.25 16.6898 45.2157 16.8084 45.1821C16.9271 45.1485 17.023 45.1159 17.1017 45.084C17.1747 45.0523 17.2256 45.0387 17.2541 45.0375C17.2827 45.0363 17.306 45.0468 17.3184 45.0691C17.3305 45.0858 17.3431 45.1138 17.3391 45.154C17.3403 45.1826 17.3363 45.2228 17.3325 45.2687C17.323 45.3148 17.319 45.355 17.3038 45.4014C17.2943 45.4476 17.2791 45.494 17.2579 45.5349C17.2368 45.5758 17.2154 45.611 17.1878 45.6351C17.1495 45.6767 17.0825 45.7138 16.9869 45.7522C16.891 45.7848 16.7783 45.8239 16.648 45.8523C16.5119 45.8809 16.3702 45.9097 16.2108 45.9279C16.0574 45.9515 15.8976 45.9582 15.7432 45.959C15.463 45.9594 15.2104 45.9357 15.0018 45.8702C14.7877 45.8106 14.6121 45.7151 14.4693 45.5838C14.3322 45.4524 14.2284 45.2966 14.1572 45.0995C14.086 44.9023 14.0478 44.6752 14.0479 44.4064C14.0452 44.2064 14.0644 43.9825 14.1002 43.7466C14.136 43.5106 14.1948 43.2794 14.2825 43.0526C14.3642 42.8204 14.4749 42.5985 14.6033 42.3872C14.7371 42.1699 14.9009 41.9858 15.0885 41.8234C15.2704 41.6614 15.4877 41.5264 15.7353 41.4302C15.9769 41.3285 16.2549 41.2767 16.5636 41.2752ZM26.0103 40.854C26.2895 40.8307 26.5314 40.872 26.7413 40.9661C26.9513 41.0659 27.1403 41.2066 27.3138 41.388L27.3697 40.951C27.3792 40.9049 27.4117 40.8635 27.4679 40.8382C27.5295 40.8071 27.6203 40.7918 27.7457 40.7808C27.8084 40.7781 27.8598 40.776 27.9055 40.774C27.9457 40.7781 27.9802 40.7823 28.0092 40.7925C28.0325 40.803 28.0504 40.8194 28.0568 40.8363C28.0632 40.8532 28.0642 40.876 28.0652 40.8988L27.5609 45.2148C27.5517 45.2667 27.5191 45.3081 27.463 45.3333C27.4071 45.3643 27.3162 45.3795 27.1852 45.3908C27.1224 45.3934 27.071 45.3956 27.0308 45.3916C26.9851 45.3935 26.9561 45.3833 26.9271 45.3731C26.8983 45.3686 26.8805 45.3522 26.8683 45.3355C26.8619 45.3186 26.8609 45.2958 26.8654 45.267L26.9571 44.4568C26.9272 44.561 26.8575 44.6726 26.7658 44.8023C26.6683 44.9322 26.5475 45.0517 26.4094 45.1662C26.271 45.2749 26.115 45.373 25.941 45.449C25.7671 45.5306 25.5918 45.5781 25.4039 45.5974C25.153 45.6137 24.9404 45.5884 24.7714 45.5154C24.5966 45.437 24.455 45.3343 24.3462 45.196C24.2375 45.0576 24.1565 44.9009 24.1088 44.7199C24.0557 44.5448 24.0249 44.3574 24.011 44.1636C23.9979 43.9869 23.9952 43.7868 24.0086 43.5632C24.0275 43.3337 24.0636 43.1034 24.1165 42.8667C24.1694 42.63 24.2509 42.3921 24.3499 42.1649C24.4488 41.932 24.5774 41.7264 24.7295 41.537C24.8819 41.3533 25.0638 41.1912 25.2704 41.0739C25.4882 40.9503 25.731 40.8772 26.0103 40.854ZM37.091 39.9921C36.8924 40.0291 36.7181 40.0994 36.5795 40.2024C36.4406 40.2998 36.3201 40.425 36.2231 40.5663C36.1204 40.7079 36.0468 40.8597 35.9969 41.0333C35.9413 41.2072 35.9031 41.3861 35.888 41.5697L36.3644 41.4753C36.6876 41.4102 36.9589 41.3359 37.167 41.2528C37.3751 41.1696 37.543 41.0825 37.659 40.9861C37.7751 40.8897 37.8509 40.7893 37.8865 40.6849C37.9221 40.5804 37.9295 40.4829 37.908 40.3809C37.8784 40.222 37.7935 40.1055 37.6474 40.0316C37.5072 39.9632 37.3236 39.948 37.091 39.9921ZM37.7098 39.3427C37.9054 39.3688 38.0678 39.4248 38.2085 39.5047C38.3434 39.5848 38.4504 39.6832 38.5295 39.7942C38.603 39.9112 38.6538 40.0292 38.6819 40.1538C38.7253 40.3693 38.7109 40.57 38.6444 40.7558C38.5781 40.9474 38.454 41.1241 38.2721 41.2862C38.0846 41.4485 37.8334 41.5964 37.5186 41.724C37.204 41.8574 36.8196 41.9651 36.3604 42.0588L35.8612 42.1542C35.8598 42.2572 35.8641 42.3599 35.8799 42.4622C35.8897 42.559 35.9049 42.6499 35.9197 42.7293C35.9786 43.0413 36.1024 43.2649 36.2966 43.3939C36.4796 43.5292 36.7441 43.5638 37.0899 43.492C37.2885 43.455 37.4635 43.4019 37.6098 43.3443C37.7672 43.2804 37.8963 43.2235 38.0026 43.1676C38.1146 43.1114 38.1981 43.0564 38.2706 43.0133C38.3374 42.9705 38.3879 42.9455 38.4162 42.9386C38.4447 42.9374 38.4621 42.9423 38.4856 42.9585C38.4978 42.9751 38.5161 43.003 38.5232 43.037C38.5247 43.0712 38.5321 43.1109 38.5338 43.1509C38.5357 43.1966 38.5376 43.2422 38.5338 43.2882C38.5303 43.3398 38.5208 43.3859 38.5111 43.4264C38.4959 43.4728 38.4804 43.5134 38.4588 43.5429C38.4322 43.5898 38.3713 43.6381 38.2879 43.6931C38.1987 43.7483 38.0924 43.8043 37.9687 43.8553C37.8453 43.9119 37.7102 43.9634 37.5578 44.0098C37.4056 44.062 37.2529 44.1027 37.0997 44.1321C36.8219 44.1895 36.5767 44.2056 36.3583 44.1805C36.1288 44.1616 35.9432 44.1008 35.7788 43.9991C35.6144 43.8973 35.4828 43.7599 35.3724 43.5816C35.2676 43.403 35.1897 43.1833 35.1389 42.9281C35.096 42.724 35.0752 42.5018 35.0653 42.2678C35.0609 42.0278 35.0794 41.7868 35.1149 41.5452C35.1562 41.3032 35.2205 41.0661 35.3137 40.8334C35.4011 40.601 35.5235 40.3842 35.6754 40.1891C35.833 39.9937 36.0146 39.8259 36.2431 39.6848C36.4657 39.5381 36.7301 39.4355 37.0308 39.3771C37.2917 39.326 37.5198 39.3107 37.7098 39.3427ZM9.62527 40.2867L8.47471 45.0074L9.31675 45.0405C9.70067 45.0586 10.0196 45.028 10.2848 44.9425C10.5445 44.8629 10.7797 44.7444 10.9849 44.5928C11.1901 44.4411 11.3658 44.2679 11.5115 44.0616C11.6629 43.8551 11.7853 43.6383 11.8786 43.4113C11.9775 43.1784 12.0535 42.9465 12.1062 42.7041C12.1529 42.4562 12.1832 42.2262 12.1964 41.9969C12.2037 41.7621 12.1834 41.5514 12.129 41.3478C12.0692 41.1501 11.9764 40.9825 11.8443 40.8337C11.7124 40.6905 11.5359 40.5722 11.3263 40.4838C11.1165 40.3897 10.8284 40.339 10.4733 40.3253L9.62527 40.2867ZM9.30428 39.5912L10.599 39.6452C11.0631 39.6657 11.4491 39.7352 11.7567 39.8423C12.0589 39.9554 12.3113 40.1106 12.5089 40.3196C12.7116 40.5169 12.853 40.7511 12.9447 41.0274C13.0364 41.3038 13.0725 41.6168 13.0584 41.9605C13.05 42.1667 13.0246 42.3794 12.9881 42.5983C12.9518 42.8228 12.8982 43.0424 12.8274 43.2627C12.7566 43.483 12.6682 43.6926 12.557 43.9031C12.4515 44.1134 12.3284 44.3131 12.1763 44.5025C12.0298 44.6917 11.8599 44.8647 11.672 45.0213C11.4785 45.1781 11.2609 45.3074 11.0195 45.4148C10.7784 45.5279 10.513 45.6077 10.2178 45.6602C9.92863 45.7181 9.58065 45.7385 9.1739 45.7213L7.81593 45.6585C7.77597 45.6602 7.74124 45.6502 7.7065 45.6403C7.66582 45.6248 7.63656 45.6089 7.61252 45.5813C7.58848 45.5537 7.57562 45.52 7.56823 45.4802C7.56059 45.4348 7.56414 45.3832 7.58432 45.3194L8.89437 39.9058C8.92357 39.7845 8.97728 39.7022 9.04957 39.6534C9.1278 39.61 9.21271 39.5893 9.30428 39.5912ZM33.4517 38.0411C33.5033 38.0447 33.5378 38.0489 33.5723 38.0532C33.6014 38.0634 33.619 38.0741 33.6311 38.0908C33.6378 38.1133 33.6444 38.1359 33.6397 38.159L33.1952 44.5712C33.1974 44.6226 33.1651 44.6697 33.1147 44.6947C33.0588 44.7257 32.9684 44.7523 32.8374 44.7636C32.7691 44.7722 32.718 44.7801 32.6778 44.776C32.6378 44.7777 32.6033 44.7735 32.5743 44.7632C32.5453 44.753 32.5277 44.7423 32.5215 44.7312C32.5093 44.7145 32.5081 44.686 32.5072 44.6631L32.5588 43.8546C32.5289 43.9588 32.4712 44.0813 32.3794 44.211C32.2877 44.3407 32.1786 44.4654 32.0464 44.5853C31.914 44.6996 31.7582 44.8034 31.5903 44.8905C31.4167 44.9779 31.2417 45.031 31.0597 45.0558C30.8721 45.0809 30.7118 45.0762 30.5676 45.048C30.4232 45.0141 30.3069 44.9675 30.201 44.8976C30.1008 44.8275 30.0113 44.7398 29.9385 44.6399C29.8657 44.54 29.8097 44.4338 29.7595 44.3272C29.7147 44.2147 29.6756 44.102 29.648 43.9888C29.626 43.8754 29.6043 43.7676 29.5945 43.6708C29.5697 43.4889 29.5611 43.2834 29.5686 43.0543C29.5703 42.8255 29.5947 42.59 29.6419 42.3535C29.6894 42.1228 29.7594 41.8854 29.8469 41.6529C29.9343 41.4205 30.0512 41.2097 30.1976 41.0205C30.3383 40.8316 30.5148 40.6755 30.715 40.5412C30.9211 40.4124 31.1635 40.3279 31.4365 40.2935C31.573 40.2763 31.6989 40.2767 31.8252 40.2885C31.9458 40.3006 32.0557 40.3303 32.1601 40.3659C32.2648 40.4072 32.3643 40.4602 32.4525 40.5194C32.5408 40.5786 32.6239 40.6494 32.7009 40.7148L32.8717 38.2543C32.8707 38.2315 32.8814 38.2139 32.8919 38.1905C32.9023 38.1672 32.9244 38.1491 32.9582 38.1363C32.986 38.1179 33.0255 38.1048 33.0707 38.0915C33.1214 38.0722 33.1839 38.0639 33.2636 38.0548C33.3373 38.0402 33.4001 38.0376 33.4517 38.0411Z" fill="white"/>
<path fill-rule="evenodd" clip-rule="evenodd" d="M48.2479 38.7136C48.0547 38.7352 47.8898 38.7931 47.7459 38.877C47.6019 38.9608 47.4733 39.0713 47.3705 39.2013C47.2613 39.3264 47.173 39.4774 47.1033 39.6373C47.0344 39.8028 46.9784 39.9781 46.9458 40.1558C46.9084 40.34 46.8823 40.5226 46.8796 40.7076C46.8713 40.8934 46.8799 41.0769 46.9047 41.2522C46.9207 41.4058 46.9577 41.5448 47.0036 41.6653C47.0559 41.7906 47.122 41.8909 47.2132 41.9645C47.2996 42.0446 47.4054 42.0989 47.537 42.1322C47.663 42.1663 47.8133 42.1682 47.9895 42.149C48.1762 42.1226 48.3476 42.0695 48.4915 41.9857C48.6346 41.8962 48.7584 41.7921 48.8669 41.6613C48.9697 41.5314 49.0579 41.3804 49.1276 41.2205C49.2022 41.0542 49.2525 40.8797 49.2908 40.7012C49.3225 40.5178 49.3478 40.3296 49.3505 40.1445C49.3596 39.9644 49.351 39.7809 49.3319 39.6047C49.3102 39.452 49.2789 39.3122 49.2274 39.1925C49.1807 39.0664 49.1146 38.9661 49.0233 38.8925C48.9378 38.818 48.832 38.7637 48.7004 38.7304C48.5744 38.6963 48.4184 38.6953 48.2479 38.7136ZM48.2359 38.0575C48.5365 38.0207 48.7967 38.0243 49.0228 38.0731C49.2434 38.1227 49.434 38.2054 49.5897 38.3276C49.7455 38.4498 49.8714 38.6051 49.9616 38.7943C50.047 38.99 50.1129 39.2115 50.1425 39.4612C50.1697 39.694 50.1742 39.9299 50.1625 40.1739C50.146 40.4244 50.111 40.6659 50.046 40.9002C49.9867 41.1336 49.8975 41.3597 49.7833 41.5721C49.6691 41.7844 49.529 41.9774 49.3623 42.1452C49.1908 42.3195 48.9975 42.4623 48.7711 42.5751C48.5447 42.6879 48.2901 42.7643 47.9951 42.8003C47.6944 42.837 47.4343 42.8334 47.2137 42.7839C46.9884 42.7407 46.7978 42.658 46.642 42.5358C46.4919 42.4128 46.366 42.2575 46.2814 42.0675C46.1904 41.8726 46.1244 41.6511 46.0941 41.3958C46.0669 41.163 46.0624 40.9271 46.0733 40.6774C46.0849 40.4334 46.1256 40.191 46.1914 39.9625C46.2507 39.729 46.3399 39.5029 46.4541 39.2905C46.5619 39.0733 46.7019 38.8804 46.8686 38.7126C47.0401 38.5383 47.2334 38.3955 47.4598 38.2827C47.6862 38.1699 47.9465 38.0927 48.2359 38.0575ZM53.1071 35.2479C53.1806 35.2375 53.2542 35.2271 53.3285 35.2224C53.4028 35.2176 53.478 35.2186 53.5426 35.2267C53.6121 35.2284 53.6654 35.2382 53.7187 35.248C53.7664 35.2585 53.8027 35.2707 53.8286 35.2901C53.8471 35.299 53.8673 35.3193 53.877 35.3468C53.8923 35.3734 53.902 35.4009 53.9068 35.4349C53.9084 35.4462 53.9108 35.4632 53.9091 35.4923C53.9131 35.5205 53.9114 35.5496 53.9163 35.5836C53.9154 35.6183 53.9145 35.6531 53.908 35.6886C53.9023 35.7298 53.9023 35.7702 53.8893 35.8009C53.8828 35.8364 53.8747 35.8607 53.8601 35.88C53.852 35.9043 53.8302 35.9131 53.8132 35.9155C53.7914 35.9244 53.7623 35.9227 53.7316 35.9098C53.696 35.9032 53.6548 35.8975 53.6072 35.887C53.566 35.8813 53.5078 35.8779 53.4496 35.8746C53.3915 35.8713 53.3228 35.8753 53.2492 35.8857C53.1134 35.9049 52.9978 35.9443 52.9129 35.9967C52.8232 36.0556 52.7528 36.129 52.6977 36.2291C52.6418 36.3236 52.6004 36.4391 52.5744 36.5813C52.5475 36.7178 52.5295 36.8761 52.5212 37.062L52.5077 37.4967L53.4444 37.3468C53.4896 37.3404 53.5139 37.3486 53.5397 37.368C53.5655 37.3874 53.5768 37.4262 53.5905 37.482C53.5945 37.5103 53.5944 37.5507 53.5943 37.5911C53.5935 37.6258 53.5934 37.6662 53.5869 37.7018C53.5861 37.7365 53.5747 37.7785 53.5674 37.8084C53.5609 37.8439 53.5479 37.8746 53.5349 37.9053C53.5155 37.9311 53.5017 37.9562 53.4815 37.9763C53.4613 37.9965 53.4395 38.0054 53.4168 38.0086L52.4793 38.1527L52.2927 42.2589C52.2794 42.532 52.2436 42.7679 52.1859 42.9722C52.1226 43.1774 52.0383 43.3566 51.9258 43.4995C51.8141 43.648 51.675 43.7658 51.5141 43.852C51.3531 43.9383 51.1656 43.9994 50.9514 44.0355C50.81 44.0555 50.6952 44.0602 50.6023 44.056C50.5086 44.0462 50.4488 44.0316 50.4238 44.0178C50.4101 44.0024 50.3964 43.9871 50.3883 43.9709C50.3803 43.9547 50.3763 43.9264 50.3723 43.8982C50.3707 43.8868 50.3675 43.8642 50.3683 43.8295C50.3643 43.8012 50.366 43.7721 50.3725 43.7365C50.3677 43.7026 50.3742 43.6671 50.375 43.6323C50.3816 43.5968 50.3881 43.5612 50.3946 43.5257C50.4011 43.4901 50.4092 43.4659 50.4238 43.4465C50.4375 43.4215 50.4537 43.4135 50.4763 43.4102C50.499 43.407 50.5159 43.4046 50.5394 43.4071C50.562 43.4039 50.5854 43.4064 50.6089 43.4088C50.6323 43.4113 50.6614 43.4129 50.6953 43.4081C50.7244 43.4098 50.7697 43.4034 50.8206 43.3962C50.9507 43.3778 51.0606 43.3391 51.1512 43.2859C51.2353 43.2279 51.3057 43.1544 51.3608 43.0543C51.4167 42.9598 51.4524 42.8452 51.4793 42.7086C51.5053 42.5665 51.5225 42.4025 51.5308 42.2166L51.7059 38.2737L51.107 38.3642C51.0787 38.3682 51.0496 38.3665 51.0295 38.3463C51.0093 38.3261 50.9988 38.2929 50.9908 38.2364C50.9812 38.2089 50.9828 38.1798 50.978 38.1459C50.9781 38.1055 50.9733 38.0715 50.979 38.0303C50.9798 37.9956 50.9856 37.9544 50.9921 37.9188C50.9986 37.8833 51.0108 37.8469 51.0237 37.8162C51.0367 37.7856 51.0505 37.7605 51.0707 37.7404C51.0909 37.7202 51.1127 37.7113 51.1459 37.7009L51.7334 37.612L51.7585 37.0141C51.7669 36.7474 51.8085 36.5107 51.8718 36.3056C51.9351 36.1004 52.025 35.9204 52.1311 35.7726C52.2492 35.629 52.3884 35.5112 52.5493 35.425C52.7159 35.3379 52.8977 35.2776 53.1071 35.2479Z" fill="white"/>
<path fill-rule="evenodd" clip-rule="evenodd" d="M102.942 34.1111C102.773 34.1444 102.626 34.2094 102.482 34.2972C102.344 34.3898 102.215 34.5044 102.099 34.6345C101.984 34.7703 101.882 34.9217 101.793 35.0772L102.255 35.1733C102.575 35.2415 102.844 35.2759 103.064 35.2821C103.289 35.2876 103.466 35.2763 103.611 35.2347C103.755 35.193 103.863 35.1331 103.933 35.0548C104.009 34.9702 104.055 34.8836 104.071 34.7836C104.109 34.6289 104.073 34.4895 103.972 34.3701C103.87 34.2507 103.709 34.1677 103.484 34.1161C103.289 34.0779 103.109 34.0722 102.942 34.1111ZM102.841 33.5134C103.095 33.4692 103.373 33.4794 103.669 33.5393C103.923 33.5928 104.129 33.67 104.292 33.7757C104.461 33.875 104.585 33.9857 104.676 34.1123C104.772 34.2324 104.829 34.3632 104.857 34.4921C104.88 34.6274 104.879 34.7542 104.855 34.8784C104.813 35.0855 104.721 35.2644 104.589 35.4081C104.458 35.5517 104.277 35.6672 104.044 35.7376C103.818 35.8129 103.534 35.8494 103.2 35.8464C102.865 35.8435 102.478 35.7897 102.028 35.6978L101.548 35.5927C101.503 35.6907 101.469 35.7815 101.441 35.8773C101.418 35.9667 101.395 36.056 101.377 36.139C101.312 36.4412 101.338 36.6856 101.455 36.8779C101.572 37.0702 101.796 37.2026 102.128 37.275C102.323 37.3132 102.499 37.3366 102.661 37.3389C102.822 37.3411 102.96 37.3405 103.08 37.3309C103.205 37.3205 103.302 37.308 103.381 37.2978C103.46 37.2819 103.511 37.281 103.541 37.2887C103.57 37.2907 103.584 37.3063 103.592 37.3282C103.601 37.3501 103.605 37.3785 103.598 37.4196C103.59 37.4437 103.577 37.4799 103.566 37.5218C103.548 37.5644 103.53 37.6069 103.513 37.6495C103.489 37.6872 103.465 37.7248 103.435 37.7632C103.411 37.7952 103.38 37.8223 103.349 37.8493C103.306 37.8778 103.234 37.8986 103.138 37.9111C103.036 37.9299 102.922 37.9388 102.784 37.9394C102.652 37.9392 102.507 37.9348 102.355 37.9197C102.198 37.9055 102.045 37.8848 101.891 37.8528C101.625 37.795 101.396 37.7151 101.21 37.6123C101.018 37.5103 100.868 37.3798 100.757 37.2271C100.65 37.0737 100.581 36.8926 100.555 36.6943C100.529 36.4903 100.546 36.2634 100.6 36.0088C100.638 35.8137 100.703 35.6037 100.791 35.3908C100.872 35.1729 100.977 34.9634 101.106 34.7567C101.236 34.5557 101.39 34.363 101.558 34.1916C101.731 34.0137 101.925 33.8677 102.141 33.7535C102.35 33.6343 102.582 33.5583 102.841 33.5134ZM98.6592 32.8888C98.7811 32.8961 98.9038 32.9091 99.0166 32.9349C99.1286 32.955 99.2364 32.9872 99.3337 33.0265C99.4366 33.0651 99.5232 33.1116 99.6049 33.1644C99.681 33.218 99.7449 33.2673 99.7848 33.3083C99.8303 33.3485 99.8581 33.3852 99.8674 33.4128C99.8767 33.4404 99.8811 33.4744 99.8798 33.5092C99.8751 33.5616 99.871 33.6198 99.8557 33.6794C99.846 33.7382 99.8235 33.7872 99.8017 33.8418C99.7792 33.8908 99.7496 33.9292 99.72 33.9676C99.6897 34.0003 99.6564 34.0104 99.616 34.0098C99.5756 34.0093 99.5323 33.986 99.486 33.9402C99.4398 33.8943 99.3807 33.8385 99.3096 33.7785C99.2336 33.725 99.1399 33.6679 99.0298 33.6187C98.9141 33.5703 98.7659 33.5376 98.5866 33.5319C98.3895 33.5227 98.2153 33.5567 98.0583 33.6345C97.9005 33.7067 97.7641 33.8107 97.6484 33.9408C97.5263 34.066 97.4297 34.211 97.3467 34.3715C97.2701 34.5369 97.1992 34.7016 97.1467 34.8754C97.0928 35.0379 97.0565 35.2039 97.0309 35.3627C97.0053 35.5216 96.9881 35.6563 96.9801 35.7725C96.9692 36.0908 97.0297 36.3365 97.1664 36.5032C97.2982 36.6763 97.4998 36.7655 97.7777 36.7758C97.9747 36.785 98.1511 36.768 98.2948 36.7207C98.4392 36.679 98.5644 36.6225 98.667 36.569C98.7688 36.5098 98.8536 36.4528 98.9222 36.4036C98.9915 36.3601 99.0459 36.3358 99.0984 36.3406C99.1211 36.3376 99.1402 36.3524 99.1545 36.3736C99.1638 36.4012 99.1739 36.4345 99.1677 36.4756C99.1671 36.516 99.1609 36.5572 99.1561 36.6096C99.145 36.6572 99.1345 36.7103 99.1184 36.7643C99.1024 36.8182 99.0855 36.8664 99.0623 36.9098C99.0398 36.9588 99.0109 37.0028 98.9693 37.037C98.934 37.0761 98.8647 37.1196 98.7735 37.1717C98.6766 37.2245 98.5669 37.2674 98.4395 37.3069C98.3185 37.3513 98.1839 37.3802 98.043 37.4041C97.8964 37.4288 97.7533 37.4357 97.603 37.432C97.1047 37.4098 96.7357 37.2731 96.5001 37.0096C96.2645 36.7462 96.1574 36.3625 96.1796 35.8642C96.1838 35.6735 96.2093 35.4686 96.2495 35.2445C96.2905 35.0261 96.3541 34.8047 96.4404 34.5805C96.526 34.3505 96.6372 34.1403 96.7653 33.9279C96.8942 33.7212 97.0487 33.5342 97.2302 33.3783C97.4118 33.2224 97.6204 33.0976 97.8567 33.0095C98.0923 32.9158 98.358 32.8758 98.6592 32.8888ZM87.7821 33.5996C87.5767 33.6146 87.4039 33.6599 87.2526 33.737C87.1012 33.8141 86.9705 33.9174 86.8597 34.0411C86.7489 34.1649 86.6524 34.3098 86.5751 34.4696C86.5034 34.6286 86.4445 34.7975 86.3977 34.9706L86.8724 34.944C87.1983 34.925 87.4647 34.8907 87.6827 34.8395C87.8944 34.7834 88.065 34.7211 88.1929 34.6412C88.3216 34.567 88.4085 34.481 88.4599 34.3879C88.5048 34.2899 88.5264 34.1892 88.5246 34.0858C88.5162 33.9313 88.4427 33.8083 88.3155 33.7152C88.189 33.6278 88.011 33.5874 87.7821 33.5996ZM91.605 32.911C91.6503 32.9051 91.707 32.8978 91.7644 32.8962C91.8339 32.8987 91.8856 32.8978 91.9267 32.9041C91.9671 32.9046 92.0026 32.9116 92.0218 32.9264C92.0459 32.9348 92.0602 32.956 92.068 32.9723C92.0759 32.9885 92.0788 33.0112 92.0753 33.0289L91.931 33.831C91.9809 33.7266 92.0528 33.6137 92.1529 33.4971C92.2581 33.3741 92.3824 33.2659 92.5244 33.1611C92.6672 33.0621 92.8228 32.9729 92.9983 32.9042C93.1737 32.8355 93.3536 32.8008 93.5379 32.8001C93.7497 32.79 93.9206 32.8199 94.0612 32.8824C94.201 32.9393 94.3155 33.0224 94.4037 33.1263C94.492 33.2301 94.5583 33.3425 94.5993 33.4813C94.6395 33.6144 94.6577 33.756 94.6597 33.9056C94.6623 34.0147 94.6584 34.1189 94.6496 34.2295C94.6401 34.3344 94.6249 34.44 94.6048 34.5521L94.1351 37.1647C94.1274 37.1945 94.1183 37.213 94.1034 37.2322C94.0943 37.2506 94.0674 37.2656 94.0398 37.2749C94.0066 37.285 93.9627 37.3021 93.9173 37.308C93.8663 37.3146 93.8033 37.3169 93.7232 37.3215C93.6538 37.3189 93.5907 37.3213 93.5432 37.3101C93.4914 37.311 93.4552 37.2984 93.4311 37.29C93.4063 37.2759 93.3871 37.2611 93.3792 37.2449C93.3714 37.2286 93.3684 37.2059 93.3712 37.1825L93.8325 34.594C93.8548 34.499 93.8658 34.4054 93.8718 34.3182C93.8771 34.2254 93.879 34.1502 93.8759 34.0815C93.8744 33.8916 93.8321 33.7415 93.748 33.6256C93.6639 33.5097 93.5305 33.4578 93.3406 33.4592C93.174 33.4634 93.0077 33.5136 92.8415 33.6099C92.6704 33.7126 92.5143 33.8422 92.3689 34.0107C92.2293 34.1785 92.0996 34.3796 91.9907 34.6068C91.876 34.8347 91.799 35.0866 91.7526 35.3518L91.4175 37.2212C91.4155 37.2503 91.4006 37.2695 91.3858 37.2887C91.3703 37.3022 91.3491 37.3164 91.3166 37.3322C91.289 37.3415 91.25 37.3523 91.1934 37.3596C91.148 37.3654 91.0857 37.3734 91.0106 37.3716C90.9305 37.3762 90.8667 37.3729 90.8199 37.3674C90.7731 37.3619 90.7376 37.3549 90.7071 37.3416C90.683 37.3332 90.6638 37.3184 90.6559 37.3021C90.6481 37.2858 90.6508 37.2624 90.6536 37.239L91.4092 33.0457C91.412 33.0223 91.4211 33.0038 91.4302 32.9853C91.4451 32.9662 91.4655 32.9462 91.4988 32.9362C91.5257 32.9212 91.5597 32.9168 91.605 32.911ZM76.8484 34.4963C76.6494 34.5162 76.4724 34.5736 76.3274 34.6557C76.1832 34.7434 76.0589 34.8516 75.9488 34.981C75.8444 35.1097 75.76 35.2588 75.689 35.4235C75.6238 35.5875 75.5705 35.7556 75.5358 35.9329L76.0076 35.8836C76.3313 35.8477 76.6019 35.8013 76.8121 35.7339C77.023 35.6721 77.1921 35.5985 77.3144 35.5193C77.436 35.4345 77.5221 35.3428 77.5671 35.2448C77.6064 35.1476 77.6223 35.0476 77.6148 34.9448C77.5951 34.7918 77.5216 34.6688 77.3895 34.5821C77.2581 34.5012 77.0758 34.4728 76.8484 34.4963ZM87.8082 32.9971C88.0654 32.9813 88.2866 32.9988 88.4724 33.0555C88.6527 33.113 88.806 33.1854 88.9276 33.2792C89.0499 33.3786 89.1438 33.4817 89.2003 33.6069C89.2617 33.7258 89.2947 33.8482 89.2995 33.9744C89.3152 34.1855 89.2769 34.3805 89.1841 34.5538C89.0976 34.732 88.95 34.8835 88.7486 35.019C88.5464 35.1487 88.2839 35.2574 87.9603 35.3395C87.6375 35.4272 87.2465 35.4776 86.7895 35.5077L86.2978 35.5365C86.2819 35.6365 86.2716 35.7358 86.2727 35.8335C86.2681 35.9321 86.2678 36.0185 86.2731 36.1043C86.2955 36.4125 86.3829 36.6432 86.5472 36.8006C86.7051 36.953 86.9612 37.018 87.3041 36.9968C87.499 36.989 87.6746 36.9663 87.8304 36.9232C87.9868 36.8857 88.1199 36.8455 88.236 36.8075C88.3513 36.7639 88.4391 36.7295 88.5155 36.6966C88.5862 36.6644 88.6358 36.6465 88.6641 36.6429C88.6925 36.6392 88.7173 36.6533 88.7308 36.6689C88.7451 36.6901 88.7544 36.7177 88.7531 36.7524C88.7575 36.7864 88.7562 36.8211 88.7507 36.8679C88.7502 36.9083 88.739 36.9558 88.7335 37.0026C88.7217 37.0445 88.7098 37.0864 88.6922 37.1289C88.6747 37.1715 88.65 37.2035 88.631 37.2348C88.5957 37.2739 88.5321 37.3166 88.4394 37.3574C88.3467 37.3982 88.2363 37.4354 88.1081 37.4692C87.9807 37.5087 87.8405 37.5383 87.689 37.5693C87.531 37.5955 87.378 37.6152 87.2236 37.6236C86.9487 37.636 86.7105 37.6206 86.497 37.5732C86.2884 37.5195 86.1102 37.433 85.9623 37.3138C85.8201 37.1938 85.7083 37.0412 85.6325 36.8551C85.5502 36.6641 85.5047 36.4453 85.4881 36.1824C85.4796 35.9819 85.4865 35.7678 85.5083 35.5346C85.5365 35.3063 85.5873 35.0751 85.6552 34.8416C85.7238 34.6139 85.8214 34.3881 85.9439 34.1765C86.0607 33.9656 86.2088 33.7736 86.3825 33.6015C86.5626 33.4342 86.764 33.2988 86.9975 33.1881C87.2366 33.0766 87.5049 33.0132 87.8082 32.9971ZM68.6747 34.9509C68.7654 34.9392 68.8391 34.9297 68.8965 34.928C68.9595 34.9257 69.0007 34.9319 69.0312 34.9452C69.061 34.9529 69.0752 34.9741 69.0732 35.0032C69.0769 35.0315 69.0593 35.0741 69.0255 35.1246L67.6994 37.306L68.8874 39.1923C68.9159 39.2347 68.9259 39.2679 68.9239 39.297C68.9276 39.3253 68.9085 39.3566 68.8767 39.378C68.8449 39.3994 68.8018 39.4222 68.7458 39.4352C68.685 39.4545 68.6064 39.4704 68.5157 39.4821C68.4307 39.4931 68.3627 39.5018 68.311 39.5027C68.26 39.5093 68.2245 39.5024 68.1947 39.4947C68.1656 39.4927 68.1465 39.4779 68.1329 39.4623C68.1201 39.4525 68.1059 39.4313 68.0973 39.4093L67.1744 37.8807L66.107 39.7004C66.0929 39.7253 66.0781 39.7445 66.0576 39.7644C66.0428 39.7836 66.016 39.7986 65.9778 39.815C65.9452 39.8308 65.9006 39.8423 65.8454 39.8609C65.7895 39.8739 65.7165 39.889 65.6259 39.9007C65.5352 39.9124 65.4615 39.9219 65.4034 39.9179C65.3517 39.9188 65.3049 39.9133 65.28 39.8992C65.2495 39.8859 65.2352 39.8647 65.2373 39.8356C65.2393 39.8065 65.2519 39.7703 65.2744 39.7214L66.6964 37.4353L65.5655 35.6339C65.5427 35.5908 65.527 35.5583 65.529 35.5292C65.5253 35.5009 65.5387 35.4703 65.5648 35.4497C65.591 35.429 65.6341 35.4062 65.69 35.3932C65.746 35.3803 65.8246 35.3644 65.9209 35.3519C66.0059 35.341 66.0739 35.3322 66.12 35.332C66.171 35.3255 66.2114 35.326 66.2355 35.3344C66.2646 35.3364 66.283 35.3456 66.2965 35.3611C66.3101 35.3767 66.3236 35.3922 66.3378 35.4134L67.2158 36.8614L68.2318 35.1347C68.2466 35.1155 68.2614 35.0963 68.277 35.0828C68.2918 35.0636 68.3179 35.0429 68.3512 35.0329C68.383 35.0115 68.4219 35.0007 68.4722 34.9885C68.5225 34.9763 68.5905 34.9675 68.6747 34.9509ZM76.8397 33.8926C77.1011 33.8646 77.3208 33.8709 77.5109 33.9155C77.6954 33.9609 77.8537 34.0269 77.9809 34.1199C78.1074 34.2073 78.2013 34.3104 78.2684 34.4285C78.3298 34.5473 78.3742 34.6684 78.3846 34.7938C78.4059 35.0042 78.379 35.1977 78.299 35.3809C78.2181 35.5584 78.0834 35.7198 77.8883 35.8601C77.6884 36.0069 77.433 36.1262 77.1116 36.2252C76.7959 36.3235 76.4086 36.4023 75.9538 36.4494L75.465 36.5009C75.4555 36.6058 75.4509 36.7043 75.452 36.8021C75.453 36.8999 75.4583 36.9856 75.4693 37.0706C75.5031 37.3774 75.6074 37.6059 75.7759 37.7512C75.9445 37.8966 76.1991 37.9502 76.5405 37.9177C76.7389 37.8921 76.9131 37.8581 77.0688 37.815C77.2182 37.7669 77.3505 37.7211 77.4651 37.6717C77.5748 37.6288 77.6675 37.588 77.7375 37.5502C77.8075 37.5124 77.8571 37.4945 77.8854 37.4908C77.9137 37.4872 77.9322 37.4963 77.9514 37.5111C77.9656 37.5323 77.975 37.5599 77.9793 37.5939C77.9837 37.6279 77.9824 37.6627 77.9826 37.7087C77.9821 37.7491 77.9766 37.7959 77.9711 37.8427C77.9599 37.8902 77.948 37.9321 77.9362 37.974C77.9186 38.0165 77.9003 38.0535 77.8749 38.0798C77.846 38.1238 77.7824 38.1666 77.6961 38.2123C77.6042 38.2587 77.5002 38.3009 77.3735 38.346C77.2461 38.3855 77.1073 38.4264 76.9565 38.4632C76.805 38.4942 76.6478 38.526 76.494 38.5401C76.2213 38.5695 75.9789 38.5661 75.7661 38.5244C75.5534 38.4827 75.3717 38.414 75.2246 38.3005C75.0718 38.1876 74.9542 38.0357 74.8671 37.8511C74.775 37.6729 74.7174 37.4499 74.6902 37.1941C74.6696 36.9894 74.6652 36.7768 74.6749 36.5393C74.6918 36.3125 74.7306 36.0771 74.7871 35.8451C74.8429 35.6075 74.9292 35.3832 75.0389 35.1617C75.1486 34.9401 75.2846 34.744 75.4519 34.5669C75.6191 34.3898 75.8191 34.2431 76.0455 34.1217C76.2774 33.9996 76.5387 33.9256 76.8397 33.8926ZM72.0837 34.4481C72.2084 34.432 72.3232 34.4287 72.4444 34.4304C72.5606 34.4384 72.6656 34.4479 72.7719 34.4688C72.8783 34.4896 72.9748 34.5233 73.0607 34.5641C73.1467 34.6048 73.2148 34.6421 73.2653 34.676C73.3157 34.7098 73.3484 34.7401 73.3634 34.767C73.372 34.7889 73.3821 34.8222 73.3864 34.8562C73.3937 34.9129 73.3954 34.9703 73.397 35.0277C73.393 35.0858 73.3833 35.1447 73.3672 35.1986C73.3504 35.2468 73.3336 35.2951 73.3096 35.3327C73.28 35.3711 73.2482 35.3925 73.2142 35.3969C73.1745 35.402 73.1263 35.3852 73.0694 35.3464C73.0182 35.3069 72.955 35.2632 72.8748 35.2217C72.7881 35.1753 72.6909 35.136 72.566 35.106C72.4469 35.0753 72.2959 35.0659 72.1202 35.0886C71.9219 35.1141 71.752 35.1821 71.6149 35.2804C71.4722 35.3795 71.35 35.5047 71.2592 35.6489C71.1626 35.7938 71.091 35.9529 71.0385 36.1267C70.986 36.3005 70.9456 36.4786 70.9214 36.6487C70.8923 36.8253 70.8852 36.9933 70.883 37.1549C70.8864 37.3158 70.8926 37.4532 70.9072 37.5666C70.9482 37.8839 71.0468 38.1131 71.204 38.2599C71.3612 38.4067 71.5811 38.459 71.8531 38.424C72.0514 38.3984 72.2185 38.3538 72.3536 38.2846C72.4894 38.221 72.6068 38.1482 72.7008 38.0727C72.7891 37.998 72.8667 37.9304 72.9225 37.8713C72.979 37.818 73.032 37.7823 73.083 37.7758C73.1057 37.7728 73.1298 37.7812 73.1441 37.8024C73.1647 37.8286 73.174 37.8562 73.1799 37.9015C73.1843 37.9355 73.1844 37.9816 73.1853 38.0333C73.1863 38.0851 73.1815 38.1375 73.1767 38.19C73.167 38.2488 73.1566 38.302 73.1455 38.3496C73.1286 38.3978 73.1054 38.4411 73.0765 38.4852C73.042 38.53 72.9855 38.5833 72.9021 38.6517C72.8188 38.72 72.7113 38.78 72.5981 38.8406C72.485 38.9013 72.359 38.9521 72.2217 39.0044C72.0837 39.051 71.9378 39.0813 71.7905 39.1003C71.2918 39.1646 70.9131 39.0867 70.6309 38.8638C70.3607 38.6452 70.1879 38.2872 70.1236 37.7885C70.1051 37.6008 70.0902 37.3954 70.0957 37.17C70.1012 36.9446 70.1286 36.7106 70.1731 36.4745C70.2239 36.2432 70.2918 36.0098 70.3838 35.7848C70.4757 35.5598 70.5982 35.3481 70.7534 35.1668C70.9079 34.9798 71.0951 34.8232 71.3086 34.692C71.5286 34.5657 71.7891 34.486 72.0837 34.4481ZM64.0357 34.0453C64.1037 34.0365 64.15 34.0824 64.1631 34.1844C64.1702 34.195 64.1732 34.2177 64.1719 34.2524C64.1763 34.2864 64.1807 34.3204 64.1794 34.3551C64.1788 34.3955 64.1726 34.4367 64.172 34.4771C64.1658 34.5182 64.1596 34.5593 64.1463 34.5898C64.1336 34.626 64.1146 34.6573 64.0885 34.6779C64.0687 34.7035 64.0419 34.7185 64.0135 34.7222L61.7011 35.1067L61.632 37.0282L63.6228 36.6967C63.6568 36.6923 63.6866 36.7 63.7122 36.7197C63.7321 36.7402 63.7486 36.7784 63.7601 36.823C63.7623 36.84 63.7595 36.8634 63.7639 36.8974C63.7619 36.9264 63.7614 36.9668 63.7601 37.0016C63.7652 37.0412 63.759 37.0824 63.7584 37.1228C63.7458 37.159 63.7389 37.1944 63.7255 37.2249C63.7178 37.2547 63.6988 37.286 63.6791 37.3116C63.6586 37.3315 63.6317 37.3465 63.5977 37.3509L61.6125 37.6817L61.5373 39.869L63.8894 39.4794C63.9234 39.475 63.9475 39.4834 63.9731 39.5031C63.9994 39.5285 64.0151 39.5611 64.0217 39.6121C64.0246 39.6347 64.0275 39.6574 64.0319 39.6914C64.0306 39.7261 64.035 39.7601 64.0345 39.8005C64.0275 39.836 64.027 39.8764 64.0208 39.9175C64.0202 39.9579 64.0076 39.9941 63.995 40.0303C63.9823 40.0665 63.9683 40.0914 63.9429 40.1177C63.9167 40.1383 63.8898 40.1533 63.8615 40.157L61.0186 40.6271C60.9846 40.6315 60.9506 40.6359 60.9152 40.6289C60.8797 40.622 60.8492 40.6086 60.8236 40.5889C60.7973 40.5635 60.7766 40.5373 60.7595 40.4935C60.743 40.4553 60.7421 40.4035 60.7461 40.3454L60.93 34.8892C60.9316 34.768 60.9603 34.6779 61.0274 34.6174C61.0945 34.5569 61.1596 34.5255 61.2325 34.5103L64.0357 34.0453ZM83.6793 31.3115C83.7295 31.2992 83.7975 31.2905 83.8719 31.2866C83.9456 31.2771 84.0087 31.2748 84.0555 31.2802C84.1015 31.2801 84.1426 31.2863 84.1675 31.3004C84.1973 31.3081 84.2108 31.3236 84.2187 31.3399C84.2265 31.3561 84.2295 31.3788 84.2324 31.4015L83.4854 37.6734C83.477 37.6975 83.4686 37.7216 83.4595 37.7401C83.4447 37.7593 83.4178 37.7743 83.3909 37.7893C83.3641 37.8043 83.3195 37.8158 83.2692 37.828C83.2239 37.8339 83.1559 37.8426 83.0878 37.8514C83.0078 37.8559 82.9447 37.8583 82.8987 37.8585C82.8462 37.8537 82.8107 37.8468 82.7809 37.8391C82.7561 37.825 82.7376 37.8159 82.729 37.7939C82.7219 37.7833 82.719 37.7607 82.721 37.7316L83.4687 31.4653C83.4714 31.442 83.4798 31.4178 83.4946 31.3986C83.5038 31.3802 83.5242 31.3602 83.5568 31.3445C83.5893 31.3288 83.6283 31.318 83.6793 31.3115ZM80.992 31.5138C81.0657 31.5044 81.1287 31.502 81.1755 31.5075C81.228 31.5122 81.2634 31.5192 81.2876 31.5276C81.3174 31.5353 81.3365 31.5501 81.3444 31.5664C81.353 31.5883 81.3559 31.611 81.3532 31.6344L80.6878 37.9131C80.685 37.9365 80.6766 37.9606 80.6618 37.9798C80.6463 37.9933 80.6258 38.0132 80.5932 38.0289C80.5664 38.0439 80.5274 38.0547 80.4772 38.0669C80.4269 38.0792 80.3646 38.0872 80.2909 38.0967C80.2108 38.1013 80.1478 38.1036 80.101 38.0982C80.0549 38.0983 80.0138 38.0921 79.9897 38.0837C79.9599 38.076 79.9463 38.0605 79.9328 38.0449C79.925 38.0287 79.922 38.006 79.9248 37.9826L80.5902 31.7039C80.5929 31.6805 80.6013 31.6564 80.6161 31.6372C80.6246 31.6131 80.6514 31.5981 80.6783 31.5831C80.7108 31.5674 80.7547 31.5502 80.7993 31.5387C80.8496 31.5264 80.9176 31.5177 80.992 31.5138Z" fill="white"/>
<path fill-rule="evenodd" clip-rule="evenodd" d="M43.5715 40.9393C43.6067 41.1325 43.4787 41.3178 43.2855 41.353L41.2555 41.7236C41.0623 41.7589 40.8771 41.6308 40.8418 41.4376C40.8065 41.2444 40.9346 41.0591 41.1278 41.0239L43.1577 40.6533C43.351 40.618 43.5362 40.7461 43.5715 40.9393Z" fill="white"/>
<path fill-rule="evenodd" clip-rule="evenodd" d="M58.2902 38.327C58.3255 38.5202 58.1974 38.7055 58.0042 38.7407L55.9743 39.1113C55.781 39.1466 55.5958 39.0185 55.5605 38.8253C55.5253 38.6321 55.6533 38.4468 55.8465 38.4116L57.8765 38.041C58.0697 38.0057 58.2549 38.1338 58.2902 38.327Z" fill="white"/>
<defs>
<linearGradient id="paint0_linear_86_2" x1="19.2171" y1="32.3846" x2="0.490244" y2="33.63" gradientUnits="userSpaceOnUse">
<stop stop-color="#A8A8A8"/>
<stop offset="0.503607" stop-color="#3C3C3C"/>
<stop offset="1"/>
</linearGradient>
<linearGradient id="paint1_linear_86_2" x1="88.0407" y1="44.9723" x2="112.047" y2="42.771" gradientUnits="userSpaceOnUse">
<stop stop-color="#A8A8A8"/>
<stop offset="0.503607" stop-color="#3C3C3C"/>
<stop offset="1"/>
</linearGradient>
<linearGradient id="paint2_linear_86_2" x1="8.70799" y1="40.9013" x2="101.816" y2="40.9013" gradientUnits="userSpaceOnUse">
<stop stop-color="#094254"/>
<stop offset="0.12058" stop-color="#3A89A7"/>
<stop offset="0.364423" stop-color="#1F667D"/>
<stop offset="0.643602" stop-color="#1F667D"/>
<stop offset="0.865907" stop-color="#3A89A7"/>
<stop offset="1" stop-color="#094254"/>
</linearGradient>
<linearGradient id="paint3_linear_86_2" x1="11.2708" y1="31.7271" x2="101.019" y2="31.7271" gradientUnits="userSpaceOnUse">
<stop/>
<stop offset="0.12058" stop-color="#90918C"/>
<stop offset="0.364423" stop-color="#3C3C3C"/>
<stop offset="0.643602" stop-color="#3C3C3C"/>
<stop offset="0.865907" stop-color="#90918C"/>
<stop offset="1"/>
</linearGradient>
<linearGradient id="paint4_linear_86_2" x1="9.09769" y1="47.2379" x2="98.4644" y2="47.2379" gradientUnits="userSpaceOnUse">
<stop/>
<stop offset="0.12058" stop-color="#90918C"/>
<stop offset="0.364423" stop-color="#3C3C3C"/>
<stop offset="0.643602" stop-color="#3C3C3C"/>
<stop offset="0.865907" stop-color="#90918C"/>
<stop offset="1"/>
</linearGradient>
</defs>
</svg>
